/* XPM */
static char * east1_xpm[] = {
"64 64 4 1",
" 	c #DCC80B",
".	c #100404",
"+	c #780BDC",
"@	c #FFFFFF",
"                                ..++++++++++++++++++++++++++++++",
"                                ..++++++++++++++++++++++++++++++",
"                                ..++++++++++++++++++++++++++++++",
"                                ..++++++++++++++++++++++++++++++",
"                                ..++++++@@@@@@@@@@@@@@@@++++++++",
"                                ..++++++@@@@@@@@@@@@@@@@++++++++",
"                              ......++++@@@@@@@@@@@@@@@@++++++++",
"                              ......++++@@@@@@@@@@@@@@@@++++++++",
"                              ......++++@@@@++++++++++++++++++++",
"                              ......++++@@@@++++++++++++++++++++",
"                              ......++++@@@@++++++++++++++++++++",
"                              ......++++@@@@++++++++++++++++++++",
"                                ..++++++@@@@++++++++++++++++++++",
"                                ..++++++@@@@++++++++++++++++++++",
"                                ..++++++@@@@@@@@++++++++++++++++",
"                                ..++++++@@@@@@@@++++++++++++++++",
"                                ..++++++@@@@@@@@++++++++++++++++",
"                                ..++++++@@@@@@@@++++++++++++++++",
"                                ..++++++@@@@++++++++++++++++++++",
"                                ..++++++@@@@++++++++++++++++++++",
"                              ......++++@@@@++++++++++++++++++++",
"                              ......++++@@@@++++++++++++++++++++",
"                              ..++..++++@@@@++++++++++++++++++++",
"                              ..++..++++@@@@++++++++++++++++++++",
"                              ..++..++++@@@@@@@@@@@@@@@@++++++++",
"                              ..++..++++@@@@@@@@@@@@@@@@++++++++",
"                              ..++..++++@@@@@@@@@@@@@@@@++++++++",
"                              ..++..++++@@@@@@@@@@@@@@@@++++++++",
"                              ..++..++++++++++++++++++++++++++++",
"                              ..++..++++++++++++++++++++++++++++",
"                              ..++..++++++++++++++++++++++++++++",
"                              ..++..++++++++++++++++++++++++++++",
"................................................................",
"................................................................",
"++++++++++++++++++++++++++++++..++..                            ",
"++++++++++++++++++++++++++++++..++..                            ",
"++++++++++++++++++++++++++++++..++..                            ",
"++++++++++++++++++++++++++++++..++..                            ",
"++++++++++++++++++++++++++++++..++..                            ",
"++++++++++++++++++++++++++++++..++..                            ",
"++++++++++++++++++++++++++++++..++..                            ",
"++++++++++++++++++++++++++++++..++..                            ",
"++++++++++++++++++++++++++++++..++..                            ",
"++++++++++++++++++++++++++++++..++..                            ",
"++++++++++++++++@@++++++++++++......                            ",
"++++++++++++++++@@++++++++++++......                            ",
"++++++++++++++++@@@@++++++++++++..                              ",
"++++++++++++++++@@@@++++++++++++..                              ",
"++++++++@@@@@@@@@@@@@@++++++++++..                              ",
"++++++++@@@@@@@@@@@@@@++++++++++..                              ",
"++++++++++++++++@@@@++++++++++++..                              ",
"++++++++++++++++@@@@++++++++++++..                              ",
"++++++++++++++++@@++++++++++++......                            ",
"++++++++++++++++@@++++++++++++......                            ",
"++++++++++++++++++++++++++++++......                            ",
"++++++++++++++++++++++++++++++......                            ",
"++++++++++++++++++++++++++++++......                            ",
"++++++++++++++++++++++++++++++......                            ",
"++++++++++++++++++++++++++++++++..                              ",
"++++++++++++++++++++++++++++++++..                              ",
"++++++++++++++++++++++++++++++++..                              ",
"++++++++++++++++++++++++++++++++..                              ",
"++++++++++++++++++++++++++++++++..                              ",
"++++++++++++++++++++++++++++++++..                              "};
