/* XPM */
static char * New Piskel_xpm[] = {
"64 64 3 1",
" 	c #F30505",
".	c #FFFFFF",
"+	c #393232",
"                                ..++++++++++++++++++++++++++++++",
"                                ..++++++++++++++++++++++++++++++",
"                                ..++++++++++++++++++++++++++++++",
"                                ..++++++++++++++++++++++++++++++",
"                                ..++++++++++++++++++++++++++++++",
"                                ..++++++++++++++++++++++++++++++",
"      ..            ....      ......++++++++++++++++++++++++++++",
"      ..            ....      ......++++++++++++++++++++++++++++",
"      ....          ....      ......++++++++++++++++++++++++++++",
"      ....          ....      ......++++++++++++++++++++++++++++",
"      ......        ....      ......++++++++++++++++++++++++++++",
"      ......        ....      ......++++++++++++++++++++++++++++",
"      ........      ....        ..++++++++++++++++++++++++++++++",
"      ........      ....        ..++++++++++++++++++++++++++++++",
"      ..........    ....        ..++++++++++++++++++++++++++++++",
"      ..........    ....        ..++++++++++++++++++++++++++++++",
"      ....  ......  ....        ..++++++++++++++++++++++++++++++",
"      ....  ......  ....        ..++++++++++++++++++++++++++++++",
"      ....    ..........        ..++++++++++++++++++++++++++++++",
"      ....    ..........        ..++++++++++++++++++++++++++++++",
"      ....      ........      ......++++++++++++++++++++++++++++",
"      ....      ........      ......++++++++++++++++++++++++++++",
"      ....        ......      ..++..++++++++++++++++++++++++++++",
"      ....        ......      ..++..++++++++++++++++++++++++++++",
"      ....          ....      ..++..++++++++++++++++++++++++++++",
"      ....          ....      ..++..++++++++++++++++++++++++++++",
"                              ..++..++++++++++++++++++++++++++++",
"                              ..++..++++++++++++++++++++++++++++",
"                              ..++..++++++++++++++++++++++++++++",
"                              ..++..++++++++++++++++++++++++++++",
"                              ..++..++++++++++++++++++++++++++++",
"                              ..++..++++++++++++++++++++++++++++",
"................................................................",
"................................................................",
"++++++++++++++++++++++++++++++..++..                            ",
"++++++++++++++++++++++++++++++..++..                            ",
"++++++++++++++++++++++++++++++..++..                            ",
"++++++++++++++++++++++++++++++..++..                            ",
"++++++++++++++++++++++++++++++..++..                            ",
"++++++++++++++++++++++++++++++..++..                            ",
"++++++++++++++++++++++++++++++..++..                            ",
"++++++++++++++++++++++++++++++..++..                            ",
"++++++++++++++..++++++++++++++..++..                            ",
"++++++++++++++..++++++++++++++..++..                            ",
"++++++++++++......++++++++++++......                            ",
"++++++++++++......++++++++++++......                            ",
"++++++++++..........++++++++++++..                              ",
"++++++++++..........++++++++++++..                              ",
"++++++++++++++..++++++++++++++++..                              ",
"++++++++++++++..++++++++++++++++..                              ",
"++++++++++++++..++++++++++++++++..                              ",
"++++++++++++++..++++++++++++++++..                              ",
"++++++++++++++..++++++++++++++......                            ",
"++++++++++++++..++++++++++++++......                            ",
"++++++++++++++..++++++++++++++......                            ",
"++++++++++++++..++++++++++++++......                            ",
"++++++++++++++..++++++++++++++......                            ",
"++++++++++++++..++++++++++++++......                            ",
"++++++++++++++++++++++++++++++++..                              ",
"++++++++++++++++++++++++++++++++..                              ",
"++++++++++++++++++++++++++++++++..                              ",
"++++++++++++++++++++++++++++++++..                              ",
"++++++++++++++++++++++++++++++++..                              ",
"++++++++++++++++++++++++++++++++..                              "};
