/* XPM */
static char * pared_xpm[] = {
"64 64 2 1",
" 	c #6007B1",
".	c #000000",
"          ..          ..          ..          ..          ..    ",
"          ..          ..          ..          ..          ..    ",
"          ..          ..          ..          ..          ..    ",
"          ..          ..          ..          ..          ..    ",
"................................................................",
"................................................................",
"    ..          ..          ..          ..          ..          ",
"    ..          ..          ..          ..          ..          ",
"    ..          ..          ..          ..          ..          ",
"    ..          ..          ..          ..          ..          ",
"................................................................",
"................................................................",
"          ..          ..          ..          ..          ..    ",
"          ..          ..          ..          ..          ..    ",
"          ..          ..          ..          ..          ..    ",
"          ..          ..          ..          ..          ..    ",
"................................................................",
"................................................................",
"    ..          ..          ..          ..          ..          ",
"    ..          ..          ..          ..          ..          ",
"    ..          ..          ..          ..          ..          ",
"    ..          ..          ..          ..          ..          ",
"................................................................",
"................................................................",
"          ..          ..          ..          ..          ..    ",
"          ..          ..          ..          ..          ..    ",
"          ..          ..          ..          ..          ..    ",
"          ..          ..          ..          ..          ..    ",
"................................................................",
"................................................................",
"    ..          ..          ..          ..          ..          ",
"    ..          ..          ..          ..          ..          ",
"    ..          ..          ..          ..          ..          ",
"    ..          ..          ..          ..          ..          ",
"................................................................",
"................................................................",
"          ..          ..          ..          ..          ..    ",
"          ..          ..          ..          ..          ..    ",
"          ..          ..          ..          ..          ..    ",
"          ..          ..          ..          ..          ..    ",
"................................................................",
"................................................................",
"    ..          ..          ..          ..          ..          ",
"    ..          ..          ..          ..          ..          ",
"    ..          ..          ..          ..          ..          ",
"    ..          ..          ..          ..          ..          ",
"................................................................",
"................................................................",
"          ..          ..          ..          ..          ..    ",
"          ..          ..          ..          ..          ..    ",
"          ..          ..          ..          ..          ..    ",
"          ..          ..          ..          ..          ..    ",
"................................................................",
"................................................................",
"    ..          ..          ..          ..          ..          ",
"    ..          ..          ..          ..          ..          ",
"    ..          ..          ..          ..          ..          ",
"    ..          ..          ..          ..          ..          ",
"................................................................",
"................................................................",
"          ..          ..          ..          ..          ..    ",
"          ..          ..          ..          ..          ..    ",
"          ..          ..          ..          ..          ..    ",
"          ..          ..          ..          ..          ..    "};
