/* XPM */
static char * pared2_xpm[] = {
"64 64 2 1",
" 	c #DFF300",
".	c #000000",
"          ..          ..          ..          ..          ..    ",
"          ..          ..          ..          ..          ..    ",
"          ..          ..          ..          ..          ..    ",
"          ..          ..          ..          ..          ..    ",
"................................................................",
"................................................................",
"    ..          ..          ..          ..          ..          ",
"    ..          ..          ..          ..          ..          ",
"    ..          ..          ..          ..          ..          ",
"    ..          ..          ..          ..          ..          ",
"................................................................",
"................................................................",
"          ..          ..          ..          ..          ..    ",
"          ..          ..          ..          ..          ..    ",
"          ..          ..          ..          ..          ..    ",
"          ..          ..          ..          ..          ..    ",
"................................................................",
"................................................................",
"    ..          ..          ..          ..          ..          ",
"    ..          ..          ..          ..          ..          ",
"    ..          ..          ..          ..          ..          ",
"    ..          ..          ..          ..          ..          ",
"................................................................",
"................................................................",
"          ..          ..          ..          ..          ..    ",
"          ..          ..          ..          ..          ..    ",
"          ..          ..          ..          ..          ..    ",
"          ..          ..          ..          ..          ..    ",
"................................................................",
"................................................................",
"    ..          ..          ..          ..          ..          ",
"    ..          ..          ..          ..          ..          ",
"    ..          ..          ..          ..          ..          ",
"    ..          ..          ..          ..          ..          ",
"................................................................",
"................................................................",
"          ..          ..          ..          ..          ..    ",
"          ..          ..          ..          ..          ..    ",
"          ..          ..          ..          ..          ..    ",
"          ..          ..          ..          ..          ..    ",
"................................................................",
"................................................................",
"    ..          ..          ..          ..          ..          ",
"    ..          ..          ..          ..          ..          ",
"    ..          ..          ..          ..          ..          ",
"    ..          ..          ..          ..          ..          ",
"................................................................",
"................................................................",
"          ..          ..          ..          ..          ..    ",
"          ..          ..          ..          ..          ..    ",
"          ..          ..          ..          ..          ..    ",
"          ..          ..          ..          ..          ..    ",
"................................................................",
"................................................................",
"    ..          ..          ..          ..          ..          ",
"    ..          ..          ..          ..          ..          ",
"    ..          ..          ..          ..          ..          ",
"    ..          ..          ..          ..          ..          ",
"................................................................",
"................................................................",
"          ..          ..          ..          ..          ..    ",
"          ..          ..          ..          ..          ..    ",
"          ..          ..          ..          ..          ..    ",
"          ..          ..          ..          ..          ..    "};
