/* XPM */
static char * pared1_xpm[] = {
"64 64 3 1",
" 	c #F30909",
".	c #000000",
"+	c #6007B1",
"          ..++++++++++..          ..++++++++++..          ..++++",
"          ..++++++++++..          ..++++++++++..          ..++++",
"          ..++++++++++..          ..++++++++++..          ..++++",
"          ..++++++++++..          ..++++++++++..          ..++++",
"................................................................",
"................................................................",
"    ..          ..++++++++++..          ..          ..++++++++++",
"    ..          ..++++++++++..          ..          ..++++++++++",
"    ..          ..++++++++++..          ..          ..++++++++++",
"    ..          ..++++++++++..          ..          ..++++++++++",
"................................................................",
"................................................................",
"          ..          ..++++++++++..          ..++++++++++..    ",
"          ..          ..++++++++++..          ..++++++++++..    ",
"          ..          ..++++++++++..          ..++++++++++..    ",
"          ..          ..++++++++++..          ..++++++++++..    ",
"................................................................",
"................................................................",
"    ..          ..          ..++++++++++..          ..          ",
"    ..          ..          ..++++++++++..          ..          ",
"    ..          ..          ..++++++++++..          ..          ",
"    ..          ..          ..++++++++++..          ..          ",
"................................................................",
"................................................................",
"          ..          ..          ..          ..++++++++++..++++",
"          ..          ..          ..          ..++++++++++..++++",
"          ..          ..          ..          ..++++++++++..++++",
"          ..          ..          ..          ..++++++++++..++++",
"................................................................",
"................................................................",
"    ..          ..          ..          ..          ..          ",
"    ..          ..          ..          ..          ..          ",
"    ..          ..          ..          ..          ..          ",
"    ..          ..          ..          ..          ..          ",
"................................................................",
"................................................................",
"          ..          ..++++++++++..          ..          ..    ",
"          ..          ..++++++++++..          ..          ..    ",
"          ..          ..++++++++++..          ..          ..    ",
"          ..          ..++++++++++..          ..          ..    ",
"................................................................",
"................................................................",
"    ..          ..++++++++++..++++++++++..          ..          ",
"    ..          ..++++++++++..++++++++++..          ..          ",
"    ..          ..++++++++++..++++++++++..          ..          ",
"    ..          ..++++++++++..++++++++++..          ..          ",
"................................................................",
"................................................................",
"          ..          ..++++++++++..++++++++++..          ..    ",
"          ..          ..++++++++++..++++++++++..          ..    ",
"          ..          ..++++++++++..++++++++++..          ..    ",
"          ..          ..++++++++++..++++++++++..          ..    ",
"................................................................",
"................................................................",
"    ..          ..          ..          ..          ..          ",
"    ..          ..          ..          ..          ..          ",
"    ..          ..          ..          ..          ..          ",
"    ..          ..          ..          ..          ..          ",
"................................................................",
"................................................................",
"          ..          ..          ..          ..          ..    ",
"          ..          ..          ..          ..          ..    ",
"          ..          ..          ..          ..          ..    ",
"          ..          ..          ..          ..          ..    "};
