/* XPM */
static char * pared3_xpm[] = {
"64 64 2 1",
" 	c #000000",
".	c #534B4B",
"          ..          ..          ..          ..          ..    ",
"          ..          ..          ..          ..          ..    ",
"          ..          ..          ..          ..          ..    ",
"          ..          ..          ..          ..          ..    ",
"................................................................",
"................................................................",
"    ..          ..          ..          ..          ..          ",
"    ..          ..          ..          ..          ..          ",
"    ..          ..          ..          ..          ..          ",
"    ..          ..          ..          ..          ..          ",
"................................................................",
"................................................................",
"          ..          ..          ..          ..          ..    ",
"          ..          ..          ..          ..          ..    ",
"          ..          ..          ..          ..          ..    ",
"          ..          ..          ..          ..          ..    ",
"................................................................",
"................................................................",
"    ..          ..          ..          ..          ..          ",
"    ..          ..          ..          ..          ..          ",
"    ..          ..          ..          ..          ..          ",
"    ..          ..          ..          ..          ..          ",
"................................................................",
"................................................................",
"          ..          ..          ..          ..          ..    ",
"          ..          ..          ..          ..          ..    ",
"          ..          ..          ..          ..          ..    ",
"          ..          ..          ..          ..          ..    ",
"................................................................",
"................................................................",
"    ..          ..          ..          ..          ..          ",
"    ..          ..          ..          ..          ..          ",
"    ..          ..          ..          ..          ..          ",
"    ..          ..          ..          ..          ..          ",
"................................................................",
"................................................................",
"          ..          ..          ..          ..          ..    ",
"          ..          ..          ..          ..          ..    ",
"          ..          ..          ..          ..          ..    ",
"          ..          ..          ..          ..          ..    ",
"................................................................",
"................................................................",
"    ..          ..          ..          ..          ..          ",
"    ..          ..          ..          ..          ..          ",
"    ..          ..          ..          ..          ..          ",
"    ..          ..          ..          ..          ..          ",
"................................................................",
"................................................................",
"          ..          ..          ..          ..          ..    ",
"          ..          ..          ..          ..          ..    ",
"          ..          ..          ..          ..          ..    ",
"          ..          ..          ..          ..          ..    ",
"................................................................",
"................................................................",
"    ..          ..          ..          ..          ..          ",
"    ..          ..          ..          ..          ..          ",
"    ..          ..          ..          ..          ..          ",
"    ..          ..          ..          ..          ..          ",
"................................................................",
"................................................................",
"          ..          ..          ..          ..          ..    ",
"          ..          ..          ..          ..          ..    ",
"          ..          ..          ..          ..          ..    ",
"          ..          ..          ..          ..          ..    "};
