/* XPM */
static char * south1_xpm[] = {
"64 64 4 1",
" 	c #000DF3",
".	c #100404",
"+	c #037A82",
"@	c #FFFFFF",
"                                ..++++++++++++++++++++++++++++++",
"                                ..++++++++++++++++++++++++++++++",
"                                ..++++++++++++++++++++++++++++++",
"                                ..++++++++++++++++++++++++++++++",
"                                ..++++++++++++++++++++++++++++++",
"                                ..++++++++++++++++++++++++++++++",
"                              ......++++++++++++++++++++++++++++",
"                              ......++++++++++++++++++++++++++++",
"              @@              ..++..++++++++++++++++++++++++++++",
"              @@              ..++..++++++++++++++++++++++++++++",
"              @@              ......++++++++++++++++++++++++++++",
"              @@              ......++++++++++++++++++++++++++++",
"              @@                ..++++++++++++++++++++++++++++++",
"              @@                ..++++++++++++++++++++++++++++++",
"              @@                ..++++++++++++++++++++++++++++++",
"              @@                ..++++++++++++++++++++++++++++++",
"              @@                ..++++++++++++++++++++++++++++++",
"              @@                ..++++++++++++++++++++++++++++++",
"              @@                ..++++++++++++++++++++++++++++++",
"              @@                ..++++++++++++++++++++++++++++++",
"          @@@@@@@@@@          ......++++++++++++++++++++++++++++",
"          @@@@@@@@@@          ......++++++++++++++++++++++++++++",
"            @@@@@@            ..  ..++++++++++++++++++++++++++++",
"            @@@@@@            ..  ..++++++++++++++++++++++++++++",
"              @@              ..  ..++++++++++++++++++++++++++++",
"              @@              ..  ..++++++++++++++++++++++++++++",
"                              ..  ..++++++++++++++++++++++++++++",
"                              ..  ..++++++++++++++++++++++++++++",
"                              ..  ..++++++++++++++++++++++++++++",
"                              ..  ..++++++++++++++++++++++++++++",
"                              ..  ..++++++++++++++++++++++++++++",
"                              ..  ..++++++++++++++++++++++++++++",
"................................................................",
"................................................................",
"++++++++++++++++++++++++++++++..  ..                            ",
"++++++++++++++++++++++++++++++..  ..                            ",
"++++++++++++++++++++++++++++++..  ..                            ",
"++++++++++++++++++++++++++++++..  ..                            ",
"++++++++++++++++++++++++++++++..  ..      @@@@@@@@@@@@@@        ",
"++++++++++++++++++++++++++++++..  ..      @@@@@@@@@@@@@@        ",
"++++++++++++++++++++++++++++++..  ..    @@@@          @@@@      ",
"++++++++++++++++++++++++++++++..  ..    @@@@          @@@@      ",
"++++++++++++++++++++++++++++++..  ..    @@              @@      ",
"++++++++++++++++++++++++++++++..  ..    @@              @@      ",
"++++++++++++++++++++++++++++++......    @@                      ",
"++++++++++++++++++++++++++++++......    @@                      ",
"++++++++++++++++++++++++++++++++..      @@@@                    ",
"++++++++++++++++++++++++++++++++..      @@@@                    ",
"++++++++++++++++++++++++++++++++..        @@@@@@@@@@@@@@        ",
"++++++++++++++++++++++++++++++++..        @@@@@@@@@@@@@@        ",
"++++++++++++++++++++++++++++++++..                    @@@@      ",
"++++++++++++++++++++++++++++++++..                    @@@@      ",
"++++++++++++++++++++++++++++++......                    @@      ",
"++++++++++++++++++++++++++++++......                    @@      ",
"++++++++++++++++++++++++++++++..++..    @@              @@      ",
"++++++++++++++++++++++++++++++..++..    @@              @@      ",
"++++++++++++++++++++++++++++++......    @@@@          @@@@      ",
"++++++++++++++++++++++++++++++......    @@@@          @@@@      ",
"++++++++++++++++++++++++++++++++..        @@@@@@@@@@@@@@        ",
"++++++++++++++++++++++++++++++++..        @@@@@@@@@@@@@@        ",
"++++++++++++++++++++++++++++++++..                              ",
"++++++++++++++++++++++++++++++++..                              ",
"++++++++++++++++++++++++++++++++..                              ",
"++++++++++++++++++++++++++++++++..                              "};
