/* XPM */
static char * west1_xpm[] = {
"64 64 4 1",
" 	c #2A880A",
".	c #100404",
"+	c #F38600",
"@	c #100401",
"                                ..++++++++++++++++++++++++++++++",
"                                ..++++++++++++++++++++++++++++++",
"                                ..++++++++++++++++++++++++++++++",
"                                ..++++++++++++++++++++++++++++++",
"                                ..++++++++++++++++++++++++++++++",
"                                ..++++++++++++++++++++++++++++++",
"                              ......++++++++++++++++++++++++++++",
"                              ......++++++++++++++++++++++++++++",
"                              ..++..++++++++++++++++++++++++++++",
"                              ..++..++++++++++++++++++++++++++++",
"                              ......++++++++++++++++++++++++++++",
"                              ......++++++++++++++++++++++++++++",
"                                ..++++++++++@@++++++++++++++++++",
"                                ..++++++++++@@++++++++++++++++++",
"                                ..++++++++@@@@++++++++++++++++++",
"                                ..++++++++@@@@++++++++++++++++++",
"                                ..++++++@@@@@@@@@@@@@@@@++++++++",
"                                ..++++++@@@@@@@@@@@@@@@@++++++++",
"                                ..++++++++@@@@++++++++++++++++++",
"                                ..++++++++@@@@++++++++++++++++++",
"                              ......++++++++@@++++++++++++++++++",
"                              ......++++++++@@++++++++++++++++++",
"                              ..  ..++++++++++++++++++++++++++++",
"                              ..  ..++++++++++++++++++++++++++++",
"                              ..  ..++++++++++++++++++++++++++++",
"                              ..  ..++++++++++++++++++++++++++++",
"                              ..  ..++++++++++++++++++++++++++++",
"                              ..  ..++++++++++++++++++++++++++++",
"                              ..  ..++++++++++++++++++++++++++++",
"                              ..  ..++++++++++++++++++++++++++++",
"                              ..  ..++++++++++++++++++++++++++++",
"                              ..  ..++++++++++++++++++++++++++++",
"................................................................",
"................................................................",
"++++++++++++++++++++++++++++++..  ..                            ",
"++++++++++++++++++++++++++++++..  ..                            ",
"++++++++++++++++++++++++++++++..  ..                            ",
"++++++++++++++++++++++++++++++..  ..                            ",
"++++++@@++++++++++++++++@@++++..  ..                            ",
"++++++@@++++++++++++++++@@++++..  ..                            ",
"++++++@@@@++++++++++++@@@@++++..  ..                            ",
"++++++@@@@++++++++++++@@@@++++..  ..                            ",
"++++++@@@@++++++++++++@@@@++++..  ..                            ",
"++++++@@@@++++++++++++@@@@++++..  ..                            ",
"++++++@@@@++++++++++++@@@@++++......                            ",
"++++++@@@@++++++++++++@@@@++++......                            ",
"++++++@@@@++++++++++++@@@@++++++..                              ",
"++++++@@@@++++++++++++@@@@++++++..                              ",
"++++++@@@@++++@@@@++++@@@@++++++..                              ",
"++++++@@@@++++@@@@++++@@@@++++++..                              ",
"++++++@@@@++++@@@@++++@@@@++++++..                              ",
"++++++@@@@++++@@@@++++@@@@++++++..                              ",
"++++++@@@@++++@@@@++++@@@@++++......                            ",
"++++++@@@@++++@@@@++++@@@@++++......                            ",
"++++++@@@@@@@@@@@@@@@@@@@@++++..++..                            ",
"++++++@@@@@@@@@@@@@@@@@@@@++++..++..                            ",
"++++++++@@@@@@@@@@@@@@@@++++++......                            ",
"++++++++@@@@@@@@@@@@@@@@++++++......                            ",
"++++++++++++++++++++++++++++++++..                              ",
"++++++++++++++++++++++++++++++++..                              ",
"++++++++++++++++++++++++++++++++..                              ",
"++++++++++++++++++++++++++++++++..                              ",
"++++++++++++++++++++++++++++++++..                              ",
"++++++++++++++++++++++++++++++++..                              "};
